<svg xmlns="http://www.w3.org/2000/svg" viewBox="0 0 1172.95 155"><defs><style>.cls-1{fill:#fff;}.cls-2{fill:#005cb9;}.cls-3{fill:#ffbf3c;}.cls-4{fill:#009845;}.cls-5{fill:#eee;}.cls-6{isolation:isolate;}.cls-7{fill:#0071b8;}</style></defs><g id="Camada_2" data-name="Camada 2"><g id="Camada_1-2" data-name="Camada 1"><path class="cls-1" d="M1039,10.43c60.37-21,119.44-8,131.36,29s-27.72,84.2-88.09,105.19c-60.62,21-119.7,8-131.61-29S978.33,31.41,1039,10.43"/><path class="cls-2" d="M1112,71.31a3.26,3.26,0,0,1,1.55.26,1.49,1.49,0,0,0,1.56-1.55,35,35,0,0,0-.52-5.18,1.73,1.73,0,0,0-1-1.3c-.52-.26-1-.26-1.55-.52a1.46,1.46,0,0,0-1.82,1.56c.26,1.81.26,3.37.52,5.18a1.63,1.63,0,0,0,1.3,1.55"/><path class="cls-2" d="M1112,92c.52-.26,1-.26,1.55-.52s1-.51,1-1.29c.26-1.82.26-3.37.52-5.18a1.68,1.68,0,0,0-1.56-1.56,3.26,3.26,0,0,0-1.55.26,1.23,1.23,0,0,0-1.3,1.3,31.87,31.87,0,0,1-.52,5.18c0,1.29.78,2.07,1.82,1.81"/><path class="cls-2" d="M1010.2,77.53V74.94a1.67,1.67,0,0,0-1.56-1.55h-1.55a1.38,1.38,0,0,0-1.3,1.29v5.44a1.23,1.23,0,0,0,1.3,1.3h1.55a1.5,1.5,0,0,0,1.56-1.56V77.53"/><path class="cls-2" d="M1102.69,59.4c1.3.26,2.33.51,3.63.77a1.45,1.45,0,0,0,1.81-1.55,53.77,53.77,0,0,0-1-6.22,1.12,1.12,0,0,0-1-1c-1.3-.25-2.33-.77-3.63-1a1.38,1.38,0,0,0-1.81,1.55c.26,2.08.78,4.41,1,6.48a1,1,0,0,0,1,1"/><path class="cls-2" d="M1017.45,61.21c-1.29.26-2.59.52-3.63.78a1.19,1.19,0,0,0-1,1.29c-.26,2.08-.26,3.89-.52,6a1.68,1.68,0,0,0,1.55,1.56c1.3,0,2.34-.26,3.63-.26a1.23,1.23,0,0,0,1.3-1.3,50.31,50.31,0,0,1,.51-6.22,2.18,2.18,0,0,0-1.81-1.81"/><path class="cls-2" d="M1017.19,84.79c-1.29,0-2.59-.26-3.63-.26a1.49,1.49,0,0,0-1.55,1.55,42.25,42.25,0,0,0,.52,6,1.74,1.74,0,0,0,1,1.3c1.3.26,2.34.51,3.63.77a1.45,1.45,0,0,0,1.81-1.55c-.25-2.07-.25-4.15-.51-6.22,0-1-.52-1.55-1.3-1.55"/><path class="cls-2" d="M1102.69,77.53V80.9a1.68,1.68,0,0,0,1.56,1.56c1.29,0,2.59-.26,3.62-.26a1.39,1.39,0,0,0,1.3-1.3V74.68a1.23,1.23,0,0,0-1.3-1.29c-1.29,0-2.59-.26-3.62-.26a1.5,1.5,0,0,0-1.56,1.55v2.85"/><path class="cls-2" d="M1097,44.63c-.26-1.3-.52-2.33-.78-3.63a1.11,1.11,0,0,0-1-1c-1.82-.51-3.63-1-5.7-1.55a1.58,1.58,0,0,0-1.82,1.55,17.56,17.56,0,0,1,.52,3.63,1.73,1.73,0,0,0,1,1.3,45.33,45.33,0,0,1,5.7,1.29,1.43,1.43,0,0,0,2.07-1.55"/><path class="cls-2" d="M1024.19,110.44c.26,1.29.51,2.33.77,3.62a1.12,1.12,0,0,0,1,1c1.81.52,3.63,1,5.7,1.55a1.56,1.56,0,0,0,1.81-1.55,17.44,17.44,0,0,1-.51-3.63,1.71,1.71,0,0,0-1-1.29,41.28,41.28,0,0,1-5.44-1.3c-1.56-.26-2.59.52-2.33,1.56"/><path class="cls-2" d="M1030.92,56.29c.26-2.59.52-4.93.78-7.26a1.28,1.28,0,0,0-1.55-1.55,50.34,50.34,0,0,0-6,1.29c-.52.26-1,.52-1,1a64.59,64.59,0,0,0-1,7c0,1,.78,1.81,1.56,1.55,1.81-.26,3.88-.52,6-.78a1.22,1.22,0,0,0,1.29-1.29"/><path class="cls-2" d="M1090,98.78c-.26,2.59-.52,4.92-.78,7.51a1.29,1.29,0,0,0,1.55,1.56,48.47,48.47,0,0,0,6-1.3c.52-.26,1-.52,1-1a58.85,58.85,0,0,0,1-7.25c0-1-.77-1.81-1.55-1.56-1.81.26-3.89.52-6,.78-.78.26-1.29.78-1.29,1.3"/><path class="cls-2" d="M1029.63,97.48c-2.08-.26-3.89-.52-6-.78a1.23,1.23,0,0,0-1.56,1.56c.26,2.33.78,4.92,1,7.25a1.12,1.12,0,0,0,1,1c1.81.52,3.88.78,6,1.3a1.23,1.23,0,0,0,1.55-1.56c-.26-2.33-.52-4.92-.78-7.51,0-.52-.52-1-1.29-1.3"/><path class="cls-2" d="M1092.07,95.67l6.22-.78c.77,0,1-.52,1.29-1.29.26-2.34.26-4.67.52-7a1.67,1.67,0,0,0-1.55-1.55c-2.08.26-4.15.26-6.22.51a1.23,1.23,0,0,0-1.3,1.3,68,68,0,0,1-.52,7.25c-.26.78.52,1.56,1.56,1.56"/><path class="cls-2" d="M1092.33,69.76c2.07,0,4.14.26,6.22.26a1.5,1.5,0,0,0,1.55-1.56,63.21,63.21,0,0,0-.52-7,1.23,1.23,0,0,0-1.29-1.3l-6.22-.77a1.49,1.49,0,0,0-1.56,1.55c.26,2.33.26,4.66.52,7.26a1.45,1.45,0,0,0,1.3,1.55"/><path class="cls-2" d="M1029.89,77.53V73.91a1.68,1.68,0,0,0-1.56-1.56c-2.07,0-4.14.26-6.22.26a1.39,1.39,0,0,0-1.29,1.3v7a1.23,1.23,0,0,0,1.29,1.3c2.08,0,4.15.26,6.22.26a1.5,1.5,0,0,0,1.56-1.56V77.53"/><path class="cls-2" d="M1036.88,121.58c.26.77.26,1.55.52,2.33a1.12,1.12,0,0,0,1,1,67.33,67.33,0,0,0,7,1c1,0,1.82-.78,1.56-1.55,0-.78-.26-1.56-.26-2.33s-.52-1-1.3-1.3a64.78,64.78,0,0,1-7-1,1.46,1.46,0,0,0-1.56,1.82"/><path class="cls-2" d="M1075.49,113.29a19.87,19.87,0,0,1-.52,3.88c0,1,.78,1.82,1.55,1.56,2.59-.26,5.18-.78,7.52-1a1.12,1.12,0,0,0,1-1l.78-3.88a1.29,1.29,0,0,0-1.55-1.56c-2.6.26-4.93.78-7.52,1-.78-.26-1.29.26-1.29,1"/><path class="cls-2" d="M1085.85,42.56l-.78-3.89a1.12,1.12,0,0,0-1-1,65.9,65.9,0,0,0-7.52-1c-1,0-1.81.77-1.55,1.55.26,1.3.26,2.59.52,3.89a1.22,1.22,0,0,0,1.29,1.29,65.86,65.86,0,0,1,7.52,1,1.46,1.46,0,0,0,1.55-1.81"/><path class="cls-2" d="M1087.66,55.51c-.26-2.59-.51-5.18-.77-7.77,0-.52-.52-1-1.3-1.3a72.64,72.64,0,0,0-8-1A1.67,1.67,0,0,0,1076,47c.26,2.59.26,5.18.52,8a1.23,1.23,0,0,0,1.3,1.3l8.29.77a1.66,1.66,0,0,0,1.55-1.55"/><path class="cls-2" d="M1033.51,99.81l.78,7.78c0,.51.52,1,1.3,1.29a75.06,75.06,0,0,0,8,1,1.67,1.67,0,0,0,1.55-1.56,78.14,78.14,0,0,1-.52-8,1.21,1.21,0,0,0-1.29-1.29l-8.29-.78a1.22,1.22,0,0,0-1.56,1.55"/><path class="cls-2" d="M1044.65,55c.26-2.85.26-5.44.52-8a1.66,1.66,0,0,0-1.55-1.55,72.64,72.64,0,0,0-8,1c-.52,0-1,.52-1.3,1.3l-.78,7.77a1.67,1.67,0,0,0,1.56,1.55l8.29-.77a1.66,1.66,0,0,0,1.29-1.3"/><path class="cls-2" d="M1042.58,86.08c-2.85,0-5.7-.26-8.55-.26a1.67,1.67,0,0,0-1.55,1.56c0,2.59.26,5.18.52,7.77a1.22,1.22,0,0,0,1.29,1.3l8.55.77a1.5,1.5,0,0,0,1.56-1.55c0-2.59-.26-5.18-.26-8a1.5,1.5,0,0,0-1.56-1.56"/><path class="cls-2" d="M1076.78,87.38c0,2.59-.26,5.44-.26,8a1.67,1.67,0,0,0,1.56,1.55l8.55-.77a1.23,1.23,0,0,0,1.29-1.3c.26-2.59.26-5.18.52-7.77a1.68,1.68,0,0,0-1.55-1.56c-2.85,0-5.7.26-8.55.26a2.34,2.34,0,0,0-1.56,1.56"/><path class="cls-2" d="M1078.34,69.24c2.85,0,5.7.26,8.55.26a1.68,1.68,0,0,0,1.55-1.55c0-2.59-.26-5.19-.52-7.78a1.22,1.22,0,0,0-1.29-1.29l-8.55-.78a1.5,1.5,0,0,0-1.56,1.56c0,2.59.26,5.18.26,8,.26.77.78,1.55,1.56,1.55"/><path class="cls-2" d="M1044.14,67.69c0-2.59.26-5.44.26-8a1.68,1.68,0,0,0-1.56-1.56l-8.55.78a1.22,1.22,0,0,0-1.29,1.29c-.26,2.59-.26,5.19-.52,7.78A1.67,1.67,0,0,0,1034,69.5c2.85,0,5.7-.26,8.55-.26a1.68,1.68,0,0,0,1.56-1.55"/><path class="cls-2" d="M1077,77.53v4.41a1.68,1.68,0,0,0,1.56,1.55c2.85,0,6,0,8.8-.26a1.23,1.23,0,0,0,1.3-1.29v-8a1.23,1.23,0,0,0-1.3-1.3c-2.85,0-5.7-.26-8.8-.26a1.5,1.5,0,0,0-1.56,1.56v3.62"/><path class="cls-2" d="M1043.88,77.53V73.39a1.68,1.68,0,0,0-1.56-1.56c-2.85,0-6,0-8.81.26a1.23,1.23,0,0,0-1.29,1.3v8a1.22,1.22,0,0,0,1.29,1.29c2.85,0,5.7.26,8.81.26a1.49,1.49,0,0,0,1.56-1.55V77.53"/><path class="cls-2" d="M1061.75,123.13v2.59a1.68,1.68,0,0,0,1.56,1.56c2.33,0,4.4-.26,6.74-.26a1.23,1.23,0,0,0,1.29-1.3c0-.77.26-1.55.26-2.59a1.49,1.49,0,0,0-1.55-1.55,58.51,58.51,0,0,1-6.74.26,1.64,1.64,0,0,0-1.56,1.29"/><path class="cls-2" d="M1071.6,32.19c0-.78-.26-1.55-.26-2.59a1.22,1.22,0,0,0-1.29-1.29,56.29,56.29,0,0,0-6.74-.26,1.67,1.67,0,0,0-1.56,1.55v2.59a1.23,1.23,0,0,0,1.3,1.3c2.33,0,4.4.26,6.74.26a1.74,1.74,0,0,0,1.81-1.56"/><path class="cls-2" d="M1048.54,113.8c0,1.3.26,2.85.26,4.15a1.23,1.23,0,0,0,1.3,1.3,70.26,70.26,0,0,0,7.25.25,1.48,1.48,0,0,0,1.55-1.55V113.8a1.22,1.22,0,0,0-1.29-1.29c-2.59,0-4.92-.26-7.51-.26a1.68,1.68,0,0,0-1.56,1.55"/><path class="cls-2" d="M1058.9,41V36.86a1.67,1.67,0,0,0-1.55-1.56c-2.59,0-4.92.26-7.25.26a1.23,1.23,0,0,0-1.3,1.3c0,1.29-.26,2.85-.26,4.14a1.68,1.68,0,0,0,1.56,1.56,70,70,0,0,1,7.51-.26c.78.26,1.29-.52,1.29-1.3"/><path class="cls-2" d="M1073.15,54.47c0-2.85-.25-5.44-.51-8.29a1.23,1.23,0,0,0-1.3-1.29,80.21,80.21,0,0,0-8-.26,1.5,1.5,0,0,0-1.56,1.55v8.29a1.65,1.65,0,0,0,1.3,1.56c2.85,0,5.44,0,8.29.26,1.3-.26,1.81-1,1.81-1.82"/><path class="cls-2" d="M1062,100.85v8.29a1.68,1.68,0,0,0,1.56,1.56c2.59,0,5.18-.26,7.77-.26a1.23,1.23,0,0,0,1.3-1.3c.26-2.59.26-5.44.51-8.29a1.66,1.66,0,0,0-1.55-1.55c-2.59,0-5.44.25-8.29.25a1.39,1.39,0,0,0-1.3,1.3"/><path class="cls-2" d="M1047.5,87.64c0,2.85.26,5.44.26,8.29a1.23,1.23,0,0,0,1.3,1.29c2.85,0,5.7.26,8.55.26a1.49,1.49,0,0,0,1.55-1.55V87.64a1.67,1.67,0,0,0-1.55-1.56h-8.55a1.5,1.5,0,0,0-1.56,1.56"/><path class="cls-2" d="M1058.9,67.43V59.14a1.67,1.67,0,0,0-1.55-1.56c-2.85,0-5.7,0-8.55.26a1.23,1.23,0,0,0-1.3,1.3c0,2.59-.25,5.44-.25,8.29A1.48,1.48,0,0,0,1048.8,69h8.55a1.66,1.66,0,0,0,1.55-1.55"/><path class="cls-2" d="M1072.38,71.83h-8.81a1.5,1.5,0,0,0-1.56,1.56v8.55a1.68,1.68,0,0,0,1.56,1.55h8.81a1.22,1.22,0,0,0,1.29-1.29V73.65c0-1-.52-1.82-1.29-1.82"/><path class="cls-2" d="M1059.16,24.42h0a1.44,1.44,0,0,1-1.29,1.55c-2.33,0-4.41.26-6,.26a1.67,1.67,0,0,1-1.56-1.55,1.23,1.23,0,0,1,1.3-1.3c1.55,0,4.15-.26,6-.26a1.45,1.45,0,0,1,1.55,1.3"/><path class="cls-2" d="M1059.16,130.65h0a1.45,1.45,0,0,0-1.29-1.56c-2.33,0-4.41-.26-6-.26a1.68,1.68,0,0,0-1.56,1.56,1.23,1.23,0,0,0,1.3,1.29c1.55,0,4.15.26,6.22.26.78.26,1.29-.52,1.29-1.29"/><path class="cls-3" d="M1062,9.91a1.57,1.57,0,0,0,0,3.11c28.76,6.48,36.54,32.39,54.67,44.56a36.58,36.58,0,0,0,14.25,5.7,3.59,3.59,0,0,1,2.85,3.37c-.26,28.24-41.45,36-46.63,67.36a1.67,1.67,0,0,0,2.33,1.82c58-25.39,83.68-65,74.36-94.57-6-19.43-36.28-45.34-101.83-31.35"/><path class="cls-4" d="M1058.9,145.41c1.82-.26,1.82-2.85,0-3.36-28.75-6.48-36.53-32.39-54.66-44.57A36.74,36.74,0,0,0,990,91.78a3.58,3.58,0,0,1-2.85-3.37c.26-28.24,41.45-36,46.63-67.36.52-1.29-.77-2.33-2.07-1.81-58.29,25.65-83.69,65-74.36,94.82,6,19.18,37.57,44.83,101.56,31.35"/><path class="cls-5" d="M1095.7.84c-18.14,0-37.57,3.37-56.75,9.85-60.36,21-99.74,67.88-87.83,104.67,3.89,12.18,13.22,22,26.69,29,26.17,13.21,66.07,13,104.15-.26,60.37-21,99.75-67.88,87.83-104.67-3.62-11.92-13-22-26.68-28.76-13-6.48-29.54-9.85-47.41-9.85M1025.22,155c-18.13,0-34.71-3.37-47.93-9.85-13.73-7-23.32-17.1-27.2-29.53-11.92-37.05,28-84.46,88.61-105.71l.25.52-.25-.52c38.34-13.21,78.5-13.21,104.93,0,13.73,7,23.31,17.1,27.2,29.54,11.92,37.05-27.72,84.46-88.61,105.7a179.4,179.4,0,0,1-57,9.85"/><g class="cls-6"><path class="cls-7" d="M35.6,85.89a38.43,38.43,0,0,1-14.2-2.57A33.21,33.21,0,0,1,2.68,65.08,35,35,0,0,1,0,51.26,35,35,0,0,1,2.68,37.45a33,33,0,0,1,7.49-11A34,34,0,0,1,21.5,19.21a38.23,38.23,0,0,1,14.2-2.58,38.83,38.83,0,0,1,13.91,2.48,28.08,28.08,0,0,1,11,7.44L56,31.13A25.22,25.22,0,0,0,46.79,25a30.87,30.87,0,0,0-10.9-1.9,30.62,30.62,0,0,0-11.38,2.09,27.24,27.24,0,0,0-9.14,5.94,27.89,27.89,0,0,0-6.08,9A28.19,28.19,0,0,0,7.1,51.26a27.73,27.73,0,0,0,8.27,20.19,27.07,27.07,0,0,0,9.14,5.93,30.42,30.42,0,0,0,11.38,2.09,30,30,0,0,0,10.9-1.94A25.88,25.88,0,0,0,56,71.3l4.57,4.57a28.3,28.3,0,0,1-11,7.49A38.27,38.27,0,0,1,35.6,85.89Z"/><path class="cls-7" d="M63.33,85.31,94.46,17.22h7.1l31.12,68.09H125.1L96.5,21.4h2.92L70.82,85.31ZM75.58,67.12l2.14-5.84h39.6l2.14,5.84Z"/><path class="cls-7" d="M144,85.31V17.22h25.48A36.38,36.38,0,0,1,184.34,20a21.45,21.45,0,0,1,9.58,8,22.7,22.7,0,0,1,3.36,12.59A22.33,22.33,0,0,1,193.92,53a21.45,21.45,0,0,1-9.58,8,36.38,36.38,0,0,1-14.89,2.77H148l3.21-3.3v24.9ZM151.17,61,148,57.59h21.3q10.22,0,15.52-4.48t5.3-12.55q0-8.18-5.3-12.64t-15.52-4.48H148l3.21-3.4Zm39.3,24.32L173,60.6h7.78l17.61,24.71Z"/><path class="cls-7" d="M226.56,85.31V23.44H202.63V17.22h55.05v6.22H233.75V85.31Z"/><path class="cls-7" d="M254.86,85.31,286,17.22h7.1l31.13,68.09h-7.59L288,21.4H291l-28.6,63.91Zm12.26-18.19,2.14-5.84h39.59L311,67.12Zm29.09-56a8.13,8.13,0,0,1-4-1,15.86,15.86,0,0,1-3.16-2.29,32.72,32.72,0,0,0-2.78-2.33,4.59,4.59,0,0,0-2.82-1,4.31,4.31,0,0,0-3.55,1.66,8.09,8.09,0,0,0-1.51,4.57h-4.18a12.75,12.75,0,0,1,2.58-7.78A7.6,7.6,0,0,1,283,0a8,8,0,0,1,4,1,16.76,16.76,0,0,1,3.21,2.34A32.32,32.32,0,0,0,293,5.64a4.56,4.56,0,0,0,2.77,1,4.49,4.49,0,0,0,3.6-1.6A7.05,7.05,0,0,0,300.78.58H305a11.84,11.84,0,0,1-2.53,7.59A7.72,7.72,0,0,1,296.21,11.09Z"/><path class="cls-7" d="M364.3,85.89a38.85,38.85,0,0,1-14.25-2.57A33.57,33.57,0,0,1,331.18,65a34.65,34.65,0,0,1-2.68-13.77,34.6,34.6,0,0,1,2.68-13.76A33.68,33.68,0,0,1,350,19.21a40.64,40.64,0,0,1,28.5,0,34,34,0,0,1,11.33,7.25,33,33,0,0,1,7.49,11A35,35,0,0,1,400,51.26a35,35,0,0,1-2.68,13.82,33.07,33.07,0,0,1-7.49,11,34.11,34.11,0,0,1-11.33,7.25A38.43,38.43,0,0,1,364.3,85.89Zm0-6.42a30,30,0,0,0,11.33-2.09,26.69,26.69,0,0,0,9.05-5.93,27.73,27.73,0,0,0,6-9,28.75,28.75,0,0,0,2.14-11.24A28.7,28.7,0,0,0,390.66,40a27.62,27.62,0,0,0-6-9,26.86,26.86,0,0,0-9.05-5.94,30.17,30.17,0,0,0-11.33-2.09,30.54,30.54,0,0,0-11.38,2.09,26.78,26.78,0,0,0-9.1,5.94,29.14,29.14,0,0,0-6,31.37,28.13,28.13,0,0,0,6,9,26.61,26.61,0,0,0,9.1,5.93A30.34,30.34,0,0,0,364.3,79.47Z"/></g><g class="cls-6"><path class="cls-7" d="M0,154.57V104H21.83q8.46,0,13.12,3.4A11.18,11.18,0,0,1,39.61,117a12,12,0,0,1-1.92,6.94,11.87,11.87,0,0,1-5.2,4.26,17.56,17.56,0,0,1-7.19,1.45l1.23-1.73a21.38,21.38,0,0,1,8.35,1.48,12,12,0,0,1,5.45,4.41,12.81,12.81,0,0,1,2,7.26,11.71,11.71,0,0,1-4.73,10c-3.16,2.37-7.91,3.55-14.28,3.55Zm5.35-4.41H23.2q6.66,0,10.19-2.28c2.36-1.52,3.55-3.94,3.55-7.26s-1.19-5.68-3.55-7.19-5.75-2.28-10.19-2.28H4.77v-4.41h16.7q6.08,0,9.43-2.31a8.73,8.73,0,0,0,0-13.77q-3.36-2.28-9.43-2.28H5.35Z"/><path class="cls-7" d="M59.85,149.94H90.28v4.63H54.5V104H89.2v4.63H59.85Zm-.58-23.35H86v4.56H59.27Z"/><path class="cls-7" d="M102.86,154.57V104h4.4l34.92,43.95h-2.32V104h5.28v50.6h-4.41l-34.84-43.95h2.31v43.95Z"/><path class="cls-7" d="M167,149.94H197.4v4.63H161.62V104h34.69v4.63H167Zm-.58-23.35h26.74v4.56H166.39Z"/><path class="cls-7" d="M215.32,154.57H210V104h34.7v4.63H215.32Zm-.57-26.1h26.74v4.63H214.75Z"/><path class="cls-7" d="M253.7,99.85l9.91-9h6.86l-11.71,9Zm2,54.72V104h5.35v50.6Z"/><path class="cls-7" d="M299.53,155A28.56,28.56,0,0,1,289,153.09a24.68,24.68,0,0,1-13.92-13.56,27.57,27.57,0,0,1,0-20.52,24.51,24.51,0,0,1,5.57-8.17,25.22,25.22,0,0,1,8.42-5.39,30,30,0,0,1,20.89-.07,20.77,20.77,0,0,1,8.17,5.53l-3.4,3.4a18.78,18.78,0,0,0-6.87-4.59,23.89,23.89,0,0,0-16.55.14,20.22,20.22,0,0,0-6.79,4.41,20.58,20.58,0,0,0-4.52,6.65,21.15,21.15,0,0,0,4.52,23.35,20.22,20.22,0,0,0,6.79,4.41,22.77,22.77,0,0,0,8.46,1.55,22.18,22.18,0,0,0,8.09-1.45,19.13,19.13,0,0,0,6.87-4.62l3.4,3.4a21.15,21.15,0,0,1-8.17,5.56A28.59,28.59,0,0,1,299.53,155Z"/><path class="cls-7" d="M329.53,154.57V104h5.35v50.6Z"/><path class="cls-7" d="M373.47,155a28.92,28.92,0,0,1-10.59-1.91,25,25,0,0,1-14-13.59,27.29,27.29,0,0,1,0-20.46,25,25,0,0,1,14-13.59,30.31,30.31,0,0,1,21.18,0,25.42,25.42,0,0,1,8.42,5.39A24.49,24.49,0,0,1,398,119a27.44,27.44,0,0,1,0,20.52,24.49,24.49,0,0,1-5.56,8.17,25.58,25.58,0,0,1-8.42,5.39A28.61,28.61,0,0,1,373.47,155Zm0-4.77a22.44,22.44,0,0,0,8.42-1.55,20.06,20.06,0,0,0,6.73-4.41,20.63,20.63,0,0,0,4.44-6.65,22.72,22.72,0,0,0,0-16.7,20.52,20.52,0,0,0-4.44-6.65,20.06,20.06,0,0,0-6.73-4.41,22.44,22.44,0,0,0-8.42-1.55,22.75,22.75,0,0,0-8.45,1.55,19.8,19.8,0,0,0-6.76,4.41,21.33,21.33,0,0,0,0,30,19.8,19.8,0,0,0,6.76,4.41A22.75,22.75,0,0,0,373.47,150.23Z"/></g><g class="cls-6"><path class="cls-7" d="M420.44,151.61V3.39h50V151.61Z"/><path class="cls-7" d="M494.55,151.61V3.39h41.09L611,93.59H592V3.39h48.7V151.61H599.58L524.2,61.41h19.06v90.2Z"/><path class="cls-7" d="M720.06,155a151,151,0,0,1-36-4.24q-17.37-4.23-28.59-11l16.09-36.42a102.84,102.84,0,0,0,23.61,9.85,92.37,92.37,0,0,0,25.31,3.71,52.4,52.4,0,0,0,11.33-1,12.94,12.94,0,0,0,6-2.75,5.77,5.77,0,0,0,1.91-4.34c0-2.68-1.49-4.8-4.45-6.35a47.14,47.14,0,0,0-11.75-3.92q-7.3-1.59-16-3.39a149,149,0,0,1-17.47-4.76A68.07,68.07,0,0,1,674,82.58a36.58,36.58,0,0,1-11.75-12.81q-4.46-7.93-4.45-19.8a43.5,43.5,0,0,1,7.73-25.09q7.73-11.32,23.08-18.1T726.84,0a138.89,138.89,0,0,1,29.64,3.18,93.28,93.28,0,0,1,26.26,9.74l-15,36.21a113.59,113.59,0,0,0-21.28-8.26,77,77,0,0,0-20-2.76A41.5,41.5,0,0,0,715,39.38c-2.82.85-4.84,2-6,3.39a7.06,7.06,0,0,0-1.8,4.66q0,3.81,4.45,6a47.85,47.85,0,0,0,11.75,3.7q7.3,1.48,16.09,3.18A130,130,0,0,1,756.91,65a68.27,68.27,0,0,1,16,7.83,37,37,0,0,1,11.75,12.71q4.44,7.83,4.45,19.48a43.24,43.24,0,0,1-7.73,24.88q-7.74,11.33-23,18.21T720.06,155Z"/><path class="cls-7" d="M859.18,155a151.1,151.1,0,0,1-36-4.24q-17.35-4.23-28.58-11l16.09-36.42a102.84,102.84,0,0,0,23.61,9.85,92.3,92.3,0,0,0,25.3,3.71,52.4,52.4,0,0,0,11.33-1,12.93,12.93,0,0,0,6-2.75,5.77,5.77,0,0,0,1.91-4.34c0-2.68-1.49-4.8-4.45-6.35a47.28,47.28,0,0,0-11.75-3.92q-7.3-1.59-16-3.39a149,149,0,0,1-17.47-4.76,68.07,68.07,0,0,1-16.09-7.84,36.58,36.58,0,0,1-11.75-12.81q-4.46-7.93-4.45-19.8a43.5,43.5,0,0,1,7.73-25.09q7.73-11.32,23.08-18.1T866,0A139,139,0,0,1,895.6,3.18a93.4,93.4,0,0,1,26.26,9.74l-15,36.21a113.15,113.15,0,0,0-21.29-8.26,76.85,76.85,0,0,0-20-2.76,41.5,41.5,0,0,0-11.44,1.27,12.59,12.59,0,0,0-6,3.39,7,7,0,0,0-1.79,4.66q0,3.81,4.44,6a47.94,47.94,0,0,0,11.76,3.7q7.31,1.48,16.09,3.18A130.38,130.38,0,0,1,896,65a68.39,68.39,0,0,1,16,7.83,37,37,0,0,1,11.76,12.71q4.44,7.83,4.44,19.48a43.23,43.23,0,0,1-7.72,24.88q-7.74,11.33-23,18.21T859.18,155Z"/></g></g></g></svg>