<svg xmlns="http://www.w3.org/2000/svg" viewBox="0 0 406 34.48"><defs><style>.cls-1{fill:#444;}.cls-2{fill:#de2938;}.cls-3{fill:#fff;}</style></defs><g id="Camada_2" data-name="Camada 2"><g id="Camada_1-2" data-name="Camada 1"><path class="cls-1" d="M54.05,26.55c-3.17,0-5.55-.76-7.13-2.3s-2.36-3.89-2.36-7.09a10.34,10.34,0,0,1,2-6.77C48,8.75,50.13,7.92,53.08,7.92a8.76,8.76,0,0,1,4.33,1A6.12,6.12,0,0,1,60,11.52a8.25,8.25,0,0,1,.85,3.79v3.36H47.64a7,7,0,0,0,.88,3.21,4.05,4.05,0,0,0,2.21,1.68,12.71,12.71,0,0,0,3.92.5,13,13,0,0,0,5-.94v2.42a13,13,0,0,1-2.61.75A16.4,16.4,0,0,1,54.05,26.55Zm-6.41-10.1H58.07V15a4.64,4.64,0,0,0-1.15-3.37,5.07,5.07,0,0,0-3.77-1.19c-2.12,0-3.57.5-4.35,1.51A7.32,7.32,0,0,0,47.64,16.45Z"/><path class="cls-1" d="M65.31,26.18V8.3h2.78l.19,2a11.93,11.93,0,0,1,3-1.78,9.26,9.26,0,0,1,3.43-.64,6.31,6.31,0,0,1,3.1.64,3.87,3.87,0,0,1,1.63,1.81,11.67,11.67,0,0,1,2.93-1.75,10,10,0,0,1,3.94-.7,5.92,5.92,0,0,1,4.52,1.57,6.76,6.76,0,0,1,1.48,4.81V26.18h-3V14.6a4.33,4.33,0,0,0-1-3.28,4.65,4.65,0,0,0-3.21-.91,8,8,0,0,0-2.8.49A5.84,5.84,0,0,0,80,12.41a9.5,9.5,0,0,1,.23,2.19V26.18H77.36V14.67a5.52,5.52,0,0,0-.75-3.26c-.5-.67-1.49-1-3-1a6.55,6.55,0,0,0-2.87.66,9.82,9.82,0,0,0-2.42,1.64V26.18Z"/><path class="cls-1" d="M97.4,34.32V8.3H100l.22,1.89A7.92,7.92,0,0,1,103,8.47a9.91,9.91,0,0,1,3.47-.55,8.1,8.1,0,0,1,5.9,2.09c1.42,1.4,2.14,3.72,2.14,7s-.72,5.62-2.14,7.21a7.6,7.6,0,0,1-5.93,2.37,10.11,10.11,0,0,1-5.93-1.69v9.46Zm8.18-10.26A5.39,5.39,0,0,0,110,22.35q1.41-1.73,1.41-5.38,0-3.49-1.32-5c-.87-1-2.35-1.53-4.42-1.53a7.66,7.66,0,0,0-2.86.53,6.34,6.34,0,0,0-2.32,1.62v9.73a6.66,6.66,0,0,0,2.21,1.3A8.15,8.15,0,0,0,105.58,24.06Z"/><path class="cls-1" d="M119,26.18V8.3h2.78l.22,2.26A17.56,17.56,0,0,1,125.08,9a19.71,19.71,0,0,1,3.51-1.06v2.42a22.18,22.18,0,0,0-2.29.62c-.83.26-1.62.56-2.37.88a11,11,0,0,0-1.87,1V26.18Z"/><path class="cls-1" d="M140,26.55c-3.18,0-5.56-.76-7.13-2.3s-2.37-3.89-2.37-7.09a10.29,10.29,0,0,1,2-6.77C133.87,8.75,136,7.92,139,7.92a8.8,8.8,0,0,1,4.34,1,6.18,6.18,0,0,1,2.55,2.64,8.38,8.38,0,0,1,.84,3.79v3.36H133.54a7,7,0,0,0,.88,3.21,4.08,4.08,0,0,0,2.22,1.68,12.62,12.62,0,0,0,3.92.5,13.1,13.1,0,0,0,5-.94v2.42a13.36,13.36,0,0,1-2.61.75A16.4,16.4,0,0,1,140,26.55Zm-6.42-10.1H144V15a4.68,4.68,0,0,0-1.14-3.37,5.07,5.07,0,0,0-3.77-1.19c-2.13,0-3.58.5-4.36,1.51A7.39,7.39,0,0,0,133.54,16.45Zm3.57-10L139.77.15h2.78l-3,6.34Z"/><path class="cls-1" d="M156.62,26.55a23,23,0,0,1-3.28-.22,12.92,12.92,0,0,1-2.61-.61V23a15.24,15.24,0,0,0,2.68.68,17.7,17.7,0,0,0,2.8.22,8.12,8.12,0,0,0,3.38-.51,1.92,1.92,0,0,0,1-1.9,2.05,2.05,0,0,0-.55-1.55A4.81,4.81,0,0,0,158.4,19c-.73-.28-1.68-.6-2.83-1a27.92,27.92,0,0,1-2.74-1.09A4.71,4.71,0,0,1,151,15.41a4.42,4.42,0,0,1-.67-2.59,4.29,4.29,0,0,1,1.65-3.63q1.65-1.27,5.33-1.27a17.39,17.39,0,0,1,2.74.21,17.19,17.19,0,0,1,2.29.51v2.71a14.52,14.52,0,0,0-4.54-.79,8.77,8.77,0,0,0-3.36.47,1.76,1.76,0,0,0-1,1.76,1.94,1.94,0,0,0,.46,1.37,3.76,3.76,0,0,0,1.47.87c.66.24,1.52.54,2.57.89a20,20,0,0,1,3.34,1.32,4.68,4.68,0,0,1,1.88,1.66,4.85,4.85,0,0,1,.6,2.56,4.34,4.34,0,0,1-1.84,3.87A9.37,9.37,0,0,1,156.62,26.55Z"/><path class="cls-1" d="M174.11,26.55a5.2,5.2,0,0,1-4-1.41,5.51,5.51,0,0,1-1.33-3.94V10.75h-2.71V8.3h2.71V3.89l3.07-1V8.3h4.92l-.19,2.45h-4.73v10.3a3.1,3.1,0,0,0,.74,2.32,3.65,3.65,0,0,0,2.53.69,7,7,0,0,0,2.14-.37V26A9,9,0,0,1,174.11,26.55Z"/><path class="cls-1" d="M182.1,26.18V10.75h-2.74l.3-2.45h5.52V26.18Zm-.3-22.07V1.28h3.42V4.11Z"/><path class="cls-1" d="M190.47,26.18V8.3h2.78l.19,2a11.93,11.93,0,0,1,3-1.78,9.22,9.22,0,0,1,3.43-.64,6.31,6.31,0,0,1,3.1.64,3.93,3.93,0,0,1,1.63,1.81,11.67,11.67,0,0,1,2.93-1.75,10,10,0,0,1,3.94-.7A5.94,5.94,0,0,1,216,9.49a6.76,6.76,0,0,1,1.48,4.81V26.18h-3V14.6a4.33,4.33,0,0,0-1-3.28,4.65,4.65,0,0,0-3.21-.91,8,8,0,0,0-2.8.49,5.77,5.77,0,0,0-2.27,1.51,9.5,9.5,0,0,1,.23,2.19V26.18h-2.89V14.67a5.52,5.52,0,0,0-.75-3.26c-.5-.67-1.49-1-3-1a6.55,6.55,0,0,0-2.87.66,9.82,9.82,0,0,0-2.42,1.64V26.18Z"/><path class="cls-1" d="M230.1,26.55c-3.1,0-5.36-.79-6.77-2.39s-2.12-3.9-2.12-6.92.71-5.3,2.14-6.9S227,7.92,230.1,7.92s5.33.81,6.76,2.42,2.14,3.91,2.14,6.9-.7,5.32-2.11,6.92S233.23,26.55,230.1,26.55Zm0-2.64q3.19,0,4.51-1.6t1.31-5.07c0-2.32-.45-4-1.33-5.07s-2.39-1.61-4.49-1.61-3.6.54-4.48,1.61-1.33,2.75-1.33,5.07.43,4,1.31,5.07S228,23.91,230.1,23.91Z"/><path class="cls-2" d="M252.17,26.55c-3.18,0-5.66-.77-7.45-2.33s-2.68-3.89-2.68-7,.93-5.48,2.79-7a11.4,11.4,0,0,1,7.45-2.3,18.74,18.74,0,0,1,3.4.28,11.73,11.73,0,0,1,2.79.93v4.3a11.13,11.13,0,0,0-4.91-1,6.42,6.42,0,0,0-4,1.06c-.91.7-1.37,2-1.37,3.77a4.75,4.75,0,0,0,1.28,3.68,6,6,0,0,0,4.05,1.15,10.87,10.87,0,0,0,5-1.14v4.49a12.3,12.3,0,0,1-2.91.87A20.19,20.19,0,0,1,252.17,26.55Z"/><path class="cls-2" d="M261.59,26.18V8.3h5.74l.19,1.66a14,14,0,0,1,2.89-1.3,14.69,14.69,0,0,1,3.45-.74v4.57c-.65.07-1.37.19-2.16.35s-1.54.36-2.25.59a12.16,12.16,0,0,0-1.82.71v12Z"/><path class="cls-2" d="M284.93,26.55a11.37,11.37,0,0,1-7.47-2.32q-2.81-2.31-2.81-7A9.59,9.59,0,0,1,277,10.45c1.55-1.69,3.87-2.53,7-2.53a9.2,9.2,0,0,1,6.56,2.19A7.7,7.7,0,0,1,292.85,16V19.2H280.24a3.42,3.42,0,0,0,1.93,2.47,10.24,10.24,0,0,0,4.15.7,16.93,16.93,0,0,0,3-.27,11.82,11.82,0,0,0,2.54-.68v4a11.13,11.13,0,0,1-3,.89A24.43,24.43,0,0,1,284.93,26.55Zm-4.69-10.86h7.36V14.9a2.8,2.8,0,0,0-.79-2.09,3.74,3.74,0,0,0-2.67-.78,4.18,4.18,0,0,0-3,.89A3.86,3.86,0,0,0,280.24,15.69Z"/><path class="cls-2" d="M303.4,26.55a10.58,10.58,0,0,1-4.43-.83A5.75,5.75,0,0,1,296.15,23a11.29,11.29,0,0,1-1-5.11,11.92,11.92,0,0,1,1.12-5.45,8,8,0,0,1,3.1-3.36,8.86,8.86,0,0,1,4.52-1.15,9.57,9.57,0,0,1,2.5.3,8,8,0,0,1,2.08.91V.76h6V26.18h-5.21L309,24.67a7.38,7.38,0,0,1-2.44,1.41A9.41,9.41,0,0,1,303.4,26.55Zm1.72-4.41a4.64,4.64,0,0,0,3.38-1.36V13.54a4.65,4.65,0,0,0-3.27-1.17,3.31,3.31,0,0,0-2.9,1.45,7.16,7.16,0,0,0-1,4.1q0,2.56,1,3.39A4.23,4.23,0,0,0,305.12,22.14Z"/><path class="cls-2" d="M327.38,26.55c-3.18,0-5.66-.77-7.45-2.33s-2.69-3.89-2.69-7,.94-5.48,2.8-7a11.38,11.38,0,0,1,7.45-2.3,18.74,18.74,0,0,1,3.4.28,11.73,11.73,0,0,1,2.79.93v4.3a11.14,11.14,0,0,0-4.92-1,6.39,6.39,0,0,0-4,1.06c-.92.7-1.37,2-1.37,3.77a4.74,4.74,0,0,0,1.27,3.68,6,6,0,0,0,4.06,1.15,10.9,10.9,0,0,0,5-1.14v4.49a12.3,12.3,0,0,1-2.91.87A20.19,20.19,0,0,1,327.38,26.55Z"/><path class="cls-2" d="M346.33,26.55a11.37,11.37,0,0,1-7.47-2.32c-1.88-1.54-2.81-3.87-2.81-7a9.63,9.63,0,0,1,2.32-6.79q2.33-2.53,7-2.53a9.21,9.21,0,0,1,6.57,2.19A7.7,7.7,0,0,1,354.25,16V19.2H341.64a3.4,3.4,0,0,0,1.93,2.47,10.21,10.21,0,0,0,4.15.7,17,17,0,0,0,3-.27,11.71,11.71,0,0,0,2.53-.68v4a11,11,0,0,1-3,.89A24.22,24.22,0,0,1,346.33,26.55Zm-4.69-10.86H349V14.9a2.8,2.8,0,0,0-.78-2.09,3.74,3.74,0,0,0-2.67-.78,4.18,4.18,0,0,0-3,.89A3.86,3.86,0,0,0,341.64,15.69Z"/><path class="cls-2" d="M363.74,26.55a26.14,26.14,0,0,1-4.05-.3,14.43,14.43,0,0,1-3-.75V20.86a13.87,13.87,0,0,0,3,.87,18.22,18.22,0,0,0,3.08.3,13,13,0,0,0,2.34-.15.79.79,0,0,0,.73-.83c0-.51-.4-.88-1.2-1.13s-1.9-.62-3.3-1.1a10.84,10.84,0,0,1-3.7-2,4.4,4.4,0,0,1-1.25-3.41,4.66,4.66,0,0,1,2-4.05c1.31-.95,3.41-1.42,6.28-1.42a20.62,20.62,0,0,1,3.34.27,17.82,17.82,0,0,1,2.71.6v4.56a9.73,9.73,0,0,0-2.41-.71,15,15,0,0,0-2.44-.23,14,14,0,0,0-2.34.17q-1,.16-1,.81c0,.48.35.81,1,1s1.72.5,3,.92a14,14,0,0,1,3.27,1.38,4.42,4.42,0,0,1,1.65,1.75A6,6,0,0,1,372,21a4.65,4.65,0,0,1-2.11,4.11C368.53,26.08,366.47,26.55,363.74,26.55Z"/><path class="cls-2" d="M381.87,26.55A6.3,6.3,0,0,1,377,24.86a6.67,6.67,0,0,1-1.56-4.68V12.9h-2.4V8.3h2.4V4.56l6-1.62V8.3h4.32l-.26,4.6h-4.06v6.87a2.2,2.2,0,0,0,.64,1.79,3,3,0,0,0,1.92.51,7,7,0,0,0,2.21-.38V25.8A11.27,11.27,0,0,1,381.87,26.55Z"/><path class="cls-2" d="M394.14,26.55A8.08,8.08,0,0,1,391,26a5,5,0,0,1-2.31-1.87,5.41,5.41,0,0,1-.86-3.15,5.35,5.35,0,0,1,1.85-4.32,8.52,8.52,0,0,1,5.58-1.56h5v-.41a2.15,2.15,0,0,0-.9-2,6.78,6.78,0,0,0-3.38-.58,19.39,19.39,0,0,0-6,.94V9.13a17.07,17.07,0,0,1,3.21-.87,23.37,23.37,0,0,1,4-.34,10.86,10.86,0,0,1,6.47,1.7Q406,11.32,406,15V26.18h-5.29l-.3-1.51a6.49,6.49,0,0,1-2.5,1.39A12.32,12.32,0,0,1,394.14,26.55Zm1.91-3.73a5.78,5.78,0,0,0,2.48-.49,5,5,0,0,0,1.69-1.24V18.56h-4.28c-1.78,0-2.66.71-2.66,2.15a1.89,1.89,0,0,0,.67,1.54A3.21,3.21,0,0,0,396.05,22.82Z"/><rect class="cls-2" x="3.67" y="3.67" width="27.13" height="27.13" rx="4.7" transform="translate(-7.14 17.24) rotate(-45)"/><path class="cls-3" d="M17,24.2a2.46,2.46,0,0,1-3.46,0L9.6,20.26,7.88,22a1,1,0,0,0,0,1.48l6.65,6.65a1,1,0,0,0,1.48,0L26.6,19.52a1,1,0,0,0,0-1.48l-1.72-1.73Z"/><path class="cls-3" d="M26.77,11.28l-7-7a.81.81,0,0,0-1.15,0L7.71,15.22a.83.83,0,0,0,0,1.15l7,7a.81.81,0,0,0,1.15,0L26.77,12.43A.83.83,0,0,0,26.77,11.28Z"/><path class="cls-2" d="M13.26,10.59a5.18,5.18,0,0,0-.32,6.11,6.87,6.87,0,0,0,1.42,1.43,5.22,5.22,0,0,0,5.78-.06,6.86,6.86,0,0,0,1.34-1.35,5.18,5.18,0,0,0,0-5.91,6.65,6.65,0,0,0-1.18-1.19A5.25,5.25,0,0,0,15.61,9a5.61,5.61,0,0,0-1.25.62A8.14,8.14,0,0,0,13.26,10.59Zm1.28-.09a1,1,0,0,1,.71.15c.07.07.12.06.26,0a1,1,0,0,1,.76-.1.83.83,0,0,1,.52,1c-.05.2-.09.26-.64.81s-.74.81-.67,1.06a.55.55,0,0,0,.65.34,6.37,6.37,0,0,0,.69-.59c.57-.52.62-.56,1-.68a2.24,2.24,0,0,1,1.49,0,1.56,1.56,0,0,1,.72.5,1.62,1.62,0,0,1,.51.73,2.4,2.4,0,0,1-.11,1.83c-.11.18-.11.23,0,.31a.87.87,0,0,1,.14.82.85.85,0,0,1-.17.32.94.94,0,0,1-1.07.1c-.13-.09-.18-.09-.32,0a1,1,0,0,1-.87,0,.83.83,0,0,1-.42-.93,5,5,0,0,1,.69-.82l.64-.69v-.2a.5.5,0,0,0-.47-.48c-.17,0-.23.05-.76.53a3.26,3.26,0,0,1-.89.68,2.15,2.15,0,0,1-3.06-1.83,2.66,2.66,0,0,1,.28-1.23c.07-.1.06-.16,0-.3A.91.91,0,0,1,14,11,.85.85,0,0,1,14.54,10.5Z"/></g></g></svg>